<svg width="20" height="16" viewBox="0 0 20 16" fill="none" xmlns="http://www.w3.org/2000/svg">
<path d="M10.6651 0.722313L12.7524 4.40759C12.9062 4.67459 13.1997 4.86001 13.5382 4.90121L18.2267 5.50114C18.5005 5.53493 18.749 5.66184 18.9169 5.85549C19.0828 6.04668 19.1541 6.28896 19.1138 6.52712C19.081 6.7249 18.975 6.90784 18.8128 7.04794L15.4155 9.94127C15.167 10.1432 15.0545 10.4423 15.1145 10.7349L15.9509 14.8025C16.04 15.2937 15.6696 15.7568 15.1145 15.8499C14.8857 15.8821 14.6513 15.8483 14.445 15.756L10.2628 13.8416C9.95243 13.704 9.58579 13.704 9.27541 13.8416L5.09326 15.756C4.5794 15.9958 3.9427 15.8326 3.6567 15.3876C3.55074 15.2104 3.51324 15.0085 3.54793 14.8116L4.38436 10.7431C4.44437 10.4514 4.33091 10.1506 4.08336 9.94869L0.686067 7.057C0.281918 6.71418 0.269728 6.14969 0.658874 5.79451C0.667313 5.7871 0.67669 5.77886 0.686067 5.77062C0.847352 5.6264 1.05927 5.53493 1.28807 5.51103L5.97658 4.91028C6.31415 4.86825 6.60765 4.68448 6.76237 4.41583L8.77468 0.722313C8.95378 0.405867 9.32511 0.208912 9.72832 0.217153H9.85397C10.2037 0.254236 10.5085 0.444598 10.6651 0.722313Z" fill="#FAC412" fill-opacity="0.4"/>
<path d="M9.74231 13.739C9.56072 13.744 9.3838 13.7868 9.22468 13.8635L5.06298 15.7735C4.55376 15.987 3.94439 15.8213 3.6589 15.3935C3.55312 15.2187 3.51474 15.0184 3.55031 14.8222L4.38153 10.7623C4.43769 10.4672 4.32537 10.1672 4.08106 9.95944L0.682243 7.06849C0.278803 6.72145 0.271315 6.15183 0.66633 5.79654C0.671946 5.7916 0.676626 5.78748 0.682243 5.78335C0.843244 5.64322 1.05105 5.55089 1.27477 5.52204L5.96721 4.91533C6.30699 4.87741 6.60185 4.69111 6.75162 4.42073L8.79128 0.680721C8.98504 0.379015 9.35666 0.19931 9.7498 0.218269C9.74231 0.463097 9.74231 13.5725 9.74231 13.739Z" fill="#FAC412"/>
</svg>
