<svg width="20" height="16" viewBox="0 0 20 16" fill="none" xmlns="http://www.w3.org/2000/svg">
<path d="M11.1651 0.722313L13.2524 4.40759C13.4062 4.67459 13.6997 4.86001 14.0382 4.90121L18.7267 5.50114C19.0005 5.53493 19.249 5.66184 19.4168 5.85549C19.5828 6.04668 19.6541 6.28896 19.6138 6.52712C19.5809 6.7249 19.475 6.90784 19.3128 7.04794L15.9155 9.94127C15.667 10.1432 15.5544 10.4423 15.6145 10.7349L16.4509 14.8025C16.54 15.2937 16.1696 15.7568 15.6145 15.8499C15.3857 15.8821 15.1512 15.8483 14.9449 15.756L10.7628 13.8416C10.4524 13.704 10.0858 13.704 9.7754 13.8416L5.59325 15.756C5.07939 15.9958 4.44269 15.8326 4.15669 15.3876C4.05073 15.2104 4.01322 15.0085 4.04792 14.8116L4.88435 10.7431C4.94436 10.4514 4.8309 10.1506 4.58334 9.94869L1.18605 7.057C0.781903 6.71418 0.769713 6.14969 1.15886 5.79451C1.1673 5.7871 1.17668 5.77886 1.18605 5.77062C1.34734 5.6264 1.55926 5.53493 1.78806 5.51103L6.47656 4.91028C6.81413 4.86825 7.10764 4.68448 7.26236 4.41583L9.27466 0.722313C9.45376 0.405867 9.82509 0.208912 10.2283 0.217153H10.354C10.7037 0.254236 11.0085 0.444598 11.1651 0.722313" fill="#FAC412"/>
<path d="M10.2423 13.739C10.0607 13.744 9.88379 13.7868 9.72466 13.8635L5.56296 15.7735C5.05375 15.987 4.44438 15.8213 4.15888 15.3935C4.05311 15.2187 4.01473 15.0184 4.0503 14.8222L4.88151 10.7623C4.93768 10.4672 4.82535 10.1672 4.58104 9.95944L1.18223 7.06849C0.778788 6.72145 0.7713 6.15183 1.16631 5.79654C1.17193 5.7916 1.17661 5.78748 1.18223 5.78335C1.34323 5.64322 1.55103 5.55089 1.77475 5.52204L6.46719 4.91533C6.80698 4.87741 7.10184 4.69111 7.2516 4.42073L9.29127 0.680721C9.48503 0.379015 9.85664 0.19931 10.2498 0.218269C10.2423 0.463097 10.2423 13.5725 10.2423 13.739Z" fill="#FAC412"/>
</svg>
