<svg width="39" height="39" viewBox="0 0 39 39" fill="none" xmlns="http://www.w3.org/2000/svg">
<circle cx="19.5" cy="19.5" r="19.5" fill="#EEEEEF"/>
<path d="M11.2896 16.5998C11.2896 15.7124 11.4447 14.874 11.7504 14.0915C12.0425 13.3315 12.4764 12.6339 13.0291 12.036C13.5807 11.446 14.2118 10.9357 14.9044 10.5201C15.6149 10.0902 16.3842 9.76592 17.188 9.55735C18.0015 9.34373 18.8392 9.23599 19.6803 9.23682C20.9796 9.23682 22.1887 9.51172 23.3099 10.0592C24.4166 10.5968 25.3585 11.4217 26.0373 12.4478C26.7377 13.4915 27.0856 14.6721 27.0856 15.9884C27.0856 16.7778 27.008 17.55 26.8494 18.3051C26.6938 19.0598 26.4463 19.7926 26.1126 20.4872C25.7945 21.1596 25.3786 21.7812 24.8784 22.3317C24.3756 22.8735 23.7668 23.306 23.0898 23.6024C22.3548 23.9245 21.5596 24.0867 20.7571 24.078C20.1993 24.078 19.6427 23.9469 19.0929 23.6834C18.5431 23.421 18.1484 23.0606 17.9112 22.5986C17.8279 22.9191 17.7138 23.3822 17.5621 23.9879C17.4161 24.5925 17.318 24.9826 17.2747 25.1594C17.229 25.3351 17.1446 25.6282 17.0214 26.0343C16.9379 26.3347 16.8307 26.628 16.7009 26.9115L16.3085 27.6803C16.1388 28.0102 15.9491 28.3294 15.7405 28.6362C15.534 28.935 15.2785 29.292 14.9739 29.7027L14.804 29.7631L14.6911 29.6399C14.569 28.3476 14.5063 27.5742 14.5063 27.3187C14.5063 26.5624 14.5964 25.7138 14.7743 24.7716C14.9489 23.8305 15.2249 22.6476 15.5956 21.2252C15.9663 19.804 16.1785 18.9679 16.2355 18.7203C15.9743 18.1876 15.842 17.4918 15.842 16.6363C15.842 15.9531 16.0553 15.3132 16.4831 14.7109C16.9119 14.1109 17.4538 13.8109 18.1108 13.8109C18.6138 13.8109 19.0039 13.9774 19.2834 14.3117C19.564 14.6447 19.7009 15.0645 19.7009 15.5767C19.7009 16.1196 19.5206 16.9055 19.1579 17.9333C18.7952 18.9622 18.615 19.7298 18.615 20.2397C18.615 20.7564 18.7997 21.1887 19.1693 21.5275C19.534 21.8665 20.0164 22.0501 20.5142 22.0397C20.9659 22.0397 21.3845 21.937 21.7735 21.7306C22.1564 21.5301 22.4878 21.244 22.7419 20.8944C23.2954 20.1351 23.6899 19.2719 23.902 18.3565C24.0115 17.8751 24.0959 17.4177 24.1483 16.9877C24.2042 16.5553 24.2282 16.147 24.2282 15.7592C24.2282 14.3367 23.7765 13.228 22.8788 12.4341C21.9765 11.6402 20.8016 11.2455 19.3564 11.2455C17.7127 11.2455 16.3382 11.7771 15.2374 12.8436C14.1356 13.9067 13.5812 15.2584 13.5812 16.8975C13.5812 17.2591 13.6359 17.6082 13.7397 17.9458C13.8413 18.2823 13.9519 18.5504 14.0717 18.7488C14.1903 18.9439 14.3021 19.1344 14.4036 19.3101C14.5063 19.4857 14.5599 19.6112 14.5599 19.6865C14.5599 19.9169 14.4994 20.2169 14.3774 20.5876C14.2508 20.9583 14.1013 21.1431 13.9211 21.1431C13.904 21.1431 13.8333 21.1306 13.7101 21.1043C13.2834 20.9769 12.8981 20.7388 12.5934 20.4142C12.2699 20.0778 12.0147 19.6819 11.8417 19.2485C11.6692 18.8165 11.5348 18.3704 11.4402 17.915C11.3379 17.4842 11.2873 17.0427 11.2896 16.5998Z" fill="#363853"/>
</svg>
