<svg width="33" height="34" viewBox="0 0 33 34" fill="none" xmlns="http://www.w3.org/2000/svg">
<path d="M5.75085 25.544L6.1105 26.4002C6.36418 26.2961 6.62837 26.2192 6.89859 26.1706L6.73095 25.2585C6.39491 25.3189 6.06635 25.4146 5.75085 25.544Z" fill="url(#paint0_linear)"/>
<path d="M3.28833 27.8437L4.13208 28.2476C4.42409 27.6522 4.86828 27.1425 5.42073 26.7689L4.89163 26.0039C4.20428 26.4688 3.65162 27.103 3.28833 27.8437Z" fill="url(#paint1_linear)"/>
<path d="M29.0625 27.5828C29.063 26.785 28.7655 26.015 28.2268 25.4206L27.5283 26.0386C27.8054 26.3442 27.9952 26.7174 28.0781 27.1195H24.8437C24.7666 27.1195 24.6906 27.1384 24.6226 27.1744C24.5545 27.2103 24.4966 27.2624 24.4537 27.3258L22.7179 29.8994H21.5625V28.5095C21.5635 27.6496 21.9095 26.8253 22.5247 26.2173C23.1398 25.6093 23.9738 25.2673 24.8437 25.2663H25.7812C26.2422 25.2655 26.6931 25.3998 27.0769 25.6521L27.596 24.8805C27.1912 24.6142 26.7313 24.4408 26.25 24.3728V22.9498C26.25 22.8269 26.2006 22.709 26.1127 22.6222C26.0248 22.5353 25.9056 22.4865 25.7812 22.4865C25.2841 22.4859 24.8076 22.2905 24.456 21.943C24.1045 21.5956 23.9068 21.1246 23.9062 20.6332V18.78H25.3125C25.4368 18.78 25.556 18.7312 25.644 18.6443C25.7319 18.5574 25.7812 18.4396 25.7812 18.3167V15.0735C25.7812 14.9506 25.7319 14.8328 25.644 14.7459C25.556 14.659 25.4368 14.6102 25.3125 14.6102H24.4857C24.2899 14.6105 24.0949 14.6371 23.9062 14.6891V14.1469C23.9063 14.0417 23.8701 13.9395 23.8035 13.8573L22.2698 11.9624C22.4708 11.6274 22.543 11.2322 22.4734 10.8489C22.4038 10.4657 22.197 10.1199 21.8907 9.87495C21.5845 9.62997 21.1993 9.50209 20.8055 9.51469C20.4118 9.52729 20.0357 9.67952 19.7461 9.94357C19.4566 10.2076 19.2728 10.5658 19.2284 10.9528C19.184 11.3397 19.282 11.7295 19.5044 12.0509C19.7269 12.3723 20.0589 12.6039 20.4398 12.7033C20.8207 12.8027 21.2251 12.7633 21.5791 12.5923L22.9687 14.3094V14.894L20.908 14.2151C20.773 14.1691 20.6311 14.146 20.4883 14.1469H16.6219L14.3965 11.5807C14.5827 11.4528 14.7348 11.2824 14.8399 11.0838C14.945 10.8853 14.9999 10.6645 15 10.4404V10.2635L15.6784 9.92819C15.7378 9.89881 15.7903 9.85727 15.8322 9.80632C15.8742 9.75538 15.9047 9.6962 15.9218 9.6327C15.9388 9.56921 15.942 9.50286 15.9312 9.43805C15.9203 9.37324 15.8956 9.31146 15.8587 9.2568L15.0888 8.11532C15.1957 8.09493 15.2921 8.03839 15.3614 7.95542C15.4308 7.87244 15.4687 7.7682 15.4687 7.66059C15.4679 6.92358 15.1713 6.21701 14.644 5.69587C14.1168 5.17473 13.4019 4.88158 12.6562 4.88074C11.7735 4.88074 10.9562 5.13133 10.3482 5.79531C10.0848 6.08344 9.88532 6.42284 9.76248 6.79171C9.63965 7.16057 9.59622 7.55075 9.63498 7.93718L9.73529 8.9282C9.77749 9.35549 9.98412 9.75044 10.3125 10.0315V18.78C10.3122 19.1055 10.3993 19.4252 10.5647 19.7066H9.84375C9.68404 19.7065 9.52551 19.7335 9.375 19.7863V13.6836C9.37458 13.3151 9.22629 12.9618 8.96266 12.7012C8.69902 12.4407 8.34158 12.2941 7.96875 12.2937H2.34375C1.97092 12.2941 1.61348 12.4407 1.34984 12.7012C1.08621 12.9618 0.937919 13.3151 0.9375 13.6836V16.0001H1.875V15.0735H8.4375V19.7066H1.875V16.9268H0.9375V20.7098C0.937396 20.9269 1.01442 21.137 1.15511 21.3037C1.29581 21.4703 1.49125 21.5828 1.7073 21.6215L6.09375 22.4098V23.497C5.69633 23.588 5.30824 23.715 4.93441 23.8764H2.34375C2.21943 23.8764 2.1002 23.9252 2.01229 24.0121C1.92439 24.099 1.875 24.2168 1.875 24.3397V26.5388C1.26253 27.5553 0.938666 28.7163 0.9375 29.8994C0.9375 30.0223 0.986886 30.1401 1.07479 30.227C1.1627 30.3139 1.28193 30.3627 1.40625 30.3627H3.55494C3.83507 31.0471 4.31562 31.6332 4.93497 32.046C5.55433 32.4587 6.28428 32.6792 7.03125 32.6792C7.77822 32.6792 8.50817 32.4587 9.12753 32.046C9.74688 31.6332 10.2274 31.0471 10.5076 30.3627H18.3891C18.7156 30.3625 19.0385 30.295 19.3371 30.1645C19.6358 30.0339 19.9036 29.8433 20.1234 29.6046L20.625 29.0591V30.3627C20.625 30.4856 20.6744 30.6034 20.7623 30.6903C20.8502 30.7772 20.9694 30.826 21.0937 30.826H22.065C22.4778 31.5326 23.1149 32.0848 23.8775 32.397C24.6402 32.7092 25.4857 32.7639 26.2831 32.5528C27.0804 32.3416 27.785 31.8763 28.2875 31.229C28.7901 30.5817 29.0625 29.7887 29.0625 28.9728C29.0629 28.6179 29.0114 28.2649 28.9098 27.9245C28.9579 27.8812 28.9964 27.8285 29.0227 27.7696C29.049 27.7108 29.0625 27.6472 29.0625 27.5828ZM20.1562 11.1354C20.1562 10.9979 20.1975 10.8636 20.2747 10.7493C20.352 10.635 20.4618 10.5459 20.5903 10.4933C20.7188 10.4407 20.8602 10.427 20.9965 10.4538C21.1329 10.4806 21.2582 10.5468 21.3566 10.644C21.4549 10.7412 21.5219 10.865 21.549 10.9998C21.5761 11.1346 21.5622 11.2744 21.509 11.4014C21.4558 11.5283 21.3656 11.6369 21.25 11.7132C21.1344 11.7896 20.9984 11.8304 20.8594 11.8304C20.673 11.8302 20.4942 11.7569 20.3624 11.6266C20.2306 11.4963 20.1565 11.3197 20.1562 11.1354ZM13.4502 27.5828C12.9911 27.5823 12.551 27.4018 12.2264 27.081C11.9018 26.7602 11.7193 26.3252 11.7187 25.8714C11.7187 25.4166 11.8351 24.9912 12.1418 24.6412C12.4151 24.3301 12.7925 24.1266 13.2051 24.0678C13.7031 23.9976 14.1589 23.7521 14.4886 23.3765C14.8183 23.0009 14.9999 22.5204 15 22.0231C15.0001 21.9623 14.988 21.902 14.9644 21.8457C14.9408 21.7895 14.9062 21.7384 14.8626 21.6954C14.9423 21.5308 14.9883 21.3522 14.998 21.1699C15.0078 20.9876 14.9811 20.8053 14.9194 20.6332H16.1925L14.1355 25.9192C14.0858 26.0465 14.061 26.182 14.0625 26.3184V27.5828H13.4502ZM15 26.6562H17.3437C17.4443 26.6563 17.5421 26.6884 17.6228 26.7476C17.7035 26.8068 17.7628 26.8902 17.792 26.9853C17.8211 27.0804 17.8185 27.1822 17.7846 27.2757C17.7507 27.3693 17.6873 27.4496 17.6037 27.5048C17.4859 27.5558 17.3587 27.5824 17.2301 27.5828H15V26.6562ZM18.6376 26.5752C18.5444 26.3596 18.3976 26.1707 18.211 26.0261C18.0243 25.8814 17.8037 25.7856 17.5697 25.7476L19.511 21.1282C19.6835 20.7177 19.7508 20.2714 19.707 19.8289C19.6633 19.3865 19.5097 18.9616 19.26 18.5919C19.0103 18.2221 18.6722 17.919 18.2755 17.7094C17.8789 17.4997 17.4361 17.39 16.9863 17.3901H15V16.6554L15.1373 16.7911C15.1808 16.8341 15.2325 16.8682 15.2894 16.8915C15.3462 16.9148 15.4072 16.9268 15.4687 16.9268H20.2369C20.1618 17.1364 20.1387 17.3608 20.1695 17.581C20.2004 17.8013 20.2843 18.0111 20.4142 18.1927C20.5441 18.3742 20.7161 18.5224 20.916 18.6246C21.1158 18.7268 21.3375 18.7801 21.5625 18.78H21.5638C21.2582 19.1804 21.0932 19.6684 21.0937 20.1699V23.764C21.093 24.0096 20.9944 24.2451 20.8191 24.4192L18.6376 26.5752ZM21.5625 17.8534C21.4698 17.8534 21.3792 17.8262 21.3021 17.7753C21.225 17.7244 21.1649 17.652 21.1294 17.5674C21.094 17.4827 21.0847 17.3895 21.1028 17.2997C21.1208 17.2098 21.1655 17.1272 21.231 17.0625C21.2966 16.9977 21.3801 16.9535 21.4711 16.9357C21.562 16.9178 21.6562 16.927 21.7419 16.962C21.8275 16.9971 21.9007 17.0565 21.9522 17.1327C22.0038 17.2089 22.0312 17.2984 22.0312 17.3901C22.0311 17.5129 21.9817 17.6307 21.8938 17.7175C21.8059 17.8044 21.6868 17.8532 21.5625 17.8534ZM24.8437 15.5368V17.8534H23.9062V15.6811C24.0845 15.5867 24.2835 15.5372 24.4857 15.5368H24.8437ZM22.9687 17.3901C22.9688 17.1677 22.9149 16.9485 22.8115 16.751C22.7081 16.5535 22.5582 16.3834 22.3745 16.2551C22.1908 16.1267 21.9786 16.0438 21.7557 16.0133C21.5329 15.9828 21.3058 16.0056 21.0937 16.0798V15.2531L22.9687 15.8708V17.3901ZM16.4062 15.0735H20.1562V16.0001H15.6629L12.9877 13.356L12.3248 14.0112L14.0625 15.7287V17.3901H11.25V11.8304H13.3781L16.0504 14.9118C16.0944 14.9625 16.149 15.0032 16.2104 15.0312C16.2718 15.0591 16.3386 15.0735 16.4062 15.0735ZM11.0433 6.41707C11.4718 5.94907 12.0405 5.80735 12.6562 5.80735C13.0718 5.80788 13.4755 5.9446 13.804 6.19611C14.1326 6.44762 14.3675 6.79972 14.472 7.19728H12.6562C12.5319 7.19728 12.4127 7.24609 12.3248 7.33298C12.2369 7.41987 12.1875 7.53771 12.1875 7.66059V8.76094C12.1868 8.95363 12.1114 9.13871 11.9768 9.27809C11.8422 9.41747 11.6586 9.50054 11.4639 9.51019C11.2692 9.51983 11.0782 9.45533 10.9302 9.32996C10.7821 9.20458 10.6884 9.02788 10.6682 8.83623L10.5679 7.84522C10.5404 7.58747 10.5686 7.32689 10.6505 7.08071C10.7325 6.83452 10.8664 6.60832 11.0433 6.41707ZM11.4258 10.4404C11.8763 10.44 12.3082 10.2629 12.6268 9.94802C12.9454 9.63315 13.1245 9.20623 13.125 8.76094V8.1239H14.0625C14.0625 8.21538 14.0899 8.30482 14.1412 8.38092L14.7842 9.33429L14.3213 9.56293C14.2435 9.60144 14.1781 9.66057 14.1324 9.73373C14.0867 9.80688 14.0625 9.89115 14.0625 9.97713V10.4404C14.0624 10.5633 14.0129 10.681 13.9251 10.7679C13.8372 10.8548 13.718 10.9036 13.5937 10.9037H11.25V10.4313C11.3084 10.4373 11.3671 10.4404 11.4258 10.4404ZM11.25 18.78V18.3167H16.9863C17.2819 18.3167 17.5728 18.3888 17.8334 18.5265C18.094 18.6643 18.3162 18.8635 18.4803 19.1064C18.6443 19.3494 18.7452 19.6286 18.7739 19.9193C18.8027 20.21 18.7584 20.5033 18.6451 20.773L16.5621 25.7296H15.2137L17.3125 20.3362C17.3398 20.2661 17.3494 20.1904 17.3405 20.1157C17.3316 20.041 17.3045 19.9696 17.2614 19.9076C17.2183 19.8456 17.1607 19.7949 17.0933 19.7599C17.026 19.7249 16.9511 19.7066 16.875 19.7066H12.1875C11.9389 19.7063 11.7007 19.6086 11.5249 19.4349C11.3492 19.2612 11.2503 19.0257 11.25 18.78ZM9.84375 20.6332H13.5937C13.7181 20.6332 13.8373 20.682 13.9252 20.7689C14.0131 20.8558 14.0625 20.9737 14.0625 21.0965C14.0625 21.2194 14.0131 21.3373 13.9252 21.4241C13.8373 21.511 13.7181 21.5598 13.5937 21.5598H9.84375C9.71943 21.5598 9.6002 21.511 9.51229 21.4241C9.42439 21.3373 9.375 21.2194 9.375 21.0965C9.375 20.9737 9.42439 20.8558 9.51229 20.7689C9.6002 20.682 9.71943 20.6332 9.84375 20.6332ZM1.875 14.1469V13.6836C1.87514 13.5608 1.92457 13.443 2.01245 13.3561C2.10033 13.2693 2.21947 13.2204 2.34375 13.2203H7.96875C8.09303 13.2204 8.21217 13.2693 8.30005 13.3561C8.38793 13.443 8.43736 13.5608 8.4375 13.6836V14.1469H1.875ZM1.875 20.6332H8.4375V21.5598H6.60475L1.875 20.7098V20.6332ZM3.39199 24.803C3.18852 24.9663 2.99502 25.1413 2.8125 25.3272V24.803H3.39199ZM7.03125 31.7526C6.53808 31.7504 6.05404 31.6211 5.62697 31.3773C5.1999 31.1335 4.8446 30.7838 4.59621 30.3627H5.79223C6.13429 30.6612 6.57491 30.826 7.03125 30.826C7.48759 30.826 7.92821 30.6612 8.27027 30.3627H9.46629C9.2179 30.7838 8.8626 31.1335 8.43553 31.3773C8.00846 31.6211 7.52441 31.7504 7.03125 31.7526ZM19.4297 28.9815C19.2978 29.1246 19.1371 29.239 18.9579 29.3173C18.7787 29.3955 18.585 29.436 18.3891 29.4361H1.89439C1.9952 28.2265 2.48787 27.0813 3.29929 26.1704C4.11071 25.2594 5.19764 24.6314 6.39879 24.3793C6.51996 24.3533 6.64358 24.34 6.76758 24.3397H9.84375V23.4131H7.03125V22.4865H13.9629C13.8835 22.6626 13.7601 22.816 13.6043 22.9322C13.4485 23.0484 13.2655 23.1236 13.0723 23.1508C12.4364 23.2412 11.8547 23.5548 11.4334 24.0341C10.9798 24.5504 10.7812 25.1962 10.7812 25.8715C10.7808 26.4993 11.008 27.1064 11.4216 27.5828H7.5V28.5095H17.2301C17.7266 28.5058 18.2022 28.3111 18.5559 27.9666L21.482 25.0744C21.8325 24.7261 22.0298 24.2552 22.0312 23.764V20.1699C22.0316 19.8826 22.1219 19.6023 22.2897 19.3677C22.4576 19.1331 22.6948 18.9555 22.9687 18.8594V20.6332C22.9696 21.29 23.2053 21.9253 23.6342 22.4269C24.063 22.9285 24.6575 23.2641 25.3125 23.3744V24.3397C25.0215 24.3397 24.7237 24.3223 24.4344 24.3597C23.5575 24.4456 22.7297 24.8003 22.0667 25.374C21.4037 25.9478 20.9387 26.7119 20.7367 27.5597L19.4297 28.9815ZM25.0946 28.0462H25.1184L25.6842 28.6054C25.7825 28.703 25.8378 28.835 25.8381 28.9728C25.8381 29.0755 25.8073 29.176 25.7495 29.2614C25.6918 29.3468 25.6097 29.4134 25.5136 29.4527C25.4176 29.4921 25.3119 29.5023 25.21 29.4823C25.108 29.4623 25.0143 29.4128 24.9408 29.3401L24.5094 28.9138L25.0946 28.0462ZM25.3125 31.7526C24.9063 31.7514 24.5052 31.6636 24.1364 31.4954C23.7676 31.3272 23.4398 31.0825 23.1753 30.7778C23.2495 30.7421 23.3128 30.6875 23.3587 30.6197L23.7652 30.0174C23.9909 30.3446 24.3167 30.5917 24.6949 30.7224C25.0731 30.8531 25.4837 30.8606 25.8665 30.7437C26.2493 30.6269 26.5841 30.3919 26.8219 30.0731C27.0596 29.7544 27.1878 29.3688 27.1875 28.9728C27.1882 28.6982 27.1263 28.4271 27.0065 28.1794C26.9846 28.1338 26.9606 28.0896 26.9352 28.0462H27.9647C28.1144 28.4655 28.1601 28.9142 28.0981 29.3546C28.0361 29.795 27.8682 30.2143 27.6084 30.5773C27.3487 30.9404 27.0046 31.2366 26.6051 31.4411C26.2056 31.6455 25.7624 31.7524 25.3125 31.7526Z" fill="url(#paint2_linear)"/>
<path d="M3.75 15.9996H2.8125V18.7795H3.75V15.9996Z" fill="url(#paint3_linear)"/>
<ellipse opacity="0.15" cx="20.5" cy="12.5717" rx="12.5" ry="12.5717" fill="url(#paint4_linear)"/>
<defs>
<linearGradient id="paint0_linear" x1="5.75085" y1="25.7913" x2="6.87108" y2="25.7963" gradientUnits="userSpaceOnUse">
<stop stop-color="#47C2FF"/>
<stop offset="1" stop-color="#1CB4FF" stop-opacity="0.71"/>
</linearGradient>
<linearGradient id="paint1_linear" x1="3.28833" y1="27.051" x2="5.36963" y2="27.0598" gradientUnits="userSpaceOnUse">
<stop stop-color="#47C2FF"/>
<stop offset="1" stop-color="#1CB4FF" stop-opacity="0.71"/>
</linearGradient>
<linearGradient id="paint2_linear" x1="0.9375" y1="17.8533" x2="28.3884" y2="17.9773" gradientUnits="userSpaceOnUse">
<stop stop-color="#47C2FF"/>
<stop offset="1" stop-color="#1CB4FF" stop-opacity="0.71"/>
</linearGradient>
<linearGradient id="paint3_linear" x1="2.8125" y1="17.2969" x2="3.72755" y2="17.2983" gradientUnits="userSpaceOnUse">
<stop stop-color="#47C2FF"/>
<stop offset="1" stop-color="#1CB4FF" stop-opacity="0.71"/>
</linearGradient>
<linearGradient id="paint4_linear" x1="8" y1="11.7335" x2="32.4008" y2="11.8418" gradientUnits="userSpaceOnUse">
<stop stop-color="#47C2FF"/>
<stop offset="1" stop-color="#63CBFE"/>
</linearGradient>
</defs>
</svg>
