<svg width="15" height="13" viewBox="0 0 15 13" fill="none" xmlns="http://www.w3.org/2000/svg">
<path d="M8.90804 0.293031C8.72005 0.480558 8.61444 0.734866 8.61444 1.00003C8.61444 1.26519 8.72005 1.5195 8.90804 1.70703L12.2092 5.00003L1.76732 5.00703C1.50136 5.00703 1.24631 5.11239 1.05825 5.29992C0.870194 5.48746 0.764545 5.74181 0.764545 6.00703C0.764545 6.27225 0.870194 6.5266 1.05825 6.71414C1.24631 6.90167 1.50136 7.00703 1.76732 7.00703L12.2102 7.00003L8.90804 10.293C8.81227 10.3853 8.73587 10.4956 8.68332 10.6176C8.63076 10.7396 8.6031 10.8709 8.60194 11.0036C8.60079 11.1364 8.62616 11.2681 8.67658 11.391C8.727 11.5139 8.80146 11.6255 8.89561 11.7194C8.98976 11.8133 9.10173 11.8876 9.22496 11.9379C9.3482 11.9881 9.48024 12.0134 9.61339 12.0123C9.74654 12.0111 9.87812 11.9835 10.0005 11.9311C10.1228 11.8787 10.2335 11.8025 10.326 11.707L13.9219 8.12203C14.2013 7.84345 14.4229 7.51271 14.5741 7.1487C14.7254 6.78469 14.8032 6.39454 14.8032 6.00053C14.8032 5.60652 14.7254 5.21637 14.5741 4.85236C14.4229 4.48835 14.2013 4.15761 13.9219 3.87903L10.326 0.293031C10.1379 0.10556 9.8829 0.000244141 9.617 0.000244141C9.3511 0.000244141 9.09609 0.10556 8.90804 0.293031V0.293031Z" fill="white"/>
</svg>
