<svg width="23" height="22" viewBox="0 0 23 22" fill="none" xmlns="http://www.w3.org/2000/svg">
<g opacity="0.9">
<path d="M11.6622 2.54016V1.58133C11.6622 1.41925 11.5977 1.26381 11.4827 1.14921C11.3678 1.0346 11.2119 0.970215 11.0494 0.970215C10.8869 0.970215 10.731 1.0346 10.6161 1.14921C10.5012 1.26381 10.4366 1.41925 10.4366 1.58133V2.54566C5.6212 2.87933 1.80466 6.88974 1.80466 11.7753C1.80466 16.8777 5.96835 21.0299 11.0859 21.0299C16.2034 21.0299 20.3671 16.8777 20.3671 11.7753C20.3671 6.8653 16.5123 2.83808 11.6622 2.54016V2.54016ZM11.0859 19.8077C6.64397 19.8077 3.03026 16.204 3.03026 11.7753C3.03026 7.34594 6.64397 3.74252 11.0859 3.74252C15.5278 3.74252 19.1415 7.34594 19.1415 11.7753C19.1415 16.204 15.5278 19.8077 11.0859 19.8077Z" fill="#363853"/>
<path d="M7.94011 17.3217C5.93962 16.1902 4.69685 14.0644 4.69685 11.7749C4.69685 11.6056 4.55989 11.4694 4.39045 11.4694C4.22101 11.4694 4.08405 11.6056 4.08405 11.7749C4.08405 14.2841 5.446 16.6134 7.638 17.8536C7.70874 17.8936 7.7925 17.9039 7.87085 17.8823C7.9492 17.8606 8.01572 17.8088 8.05578 17.7383C8.09584 17.6678 8.10616 17.5842 8.08447 17.5061C8.06278 17.428 8.01085 17.3616 7.94011 17.3217Z" fill="#363853"/>
<path d="M9.61101 18.1599C9.49236 18.1291 9.37455 18.095 9.25773 18.0579C9.1808 18.0349 9.0979 18.043 9.02688 18.0804C8.95586 18.1177 8.90239 18.1814 8.87797 18.2577C8.85356 18.334 8.86015 18.4168 8.89633 18.4883C8.93251 18.5598 8.99539 18.6142 9.07144 18.64C9.1989 18.6809 9.32698 18.7176 9.45781 18.7509C9.53647 18.7711 9.61997 18.7594 9.68996 18.7182C9.75994 18.6771 9.81067 18.6099 9.83101 18.5315C9.84109 18.4927 9.8434 18.4523 9.83779 18.4126C9.83219 18.3729 9.81878 18.3347 9.79834 18.3002C9.77791 18.2657 9.75084 18.2355 9.71869 18.2114C9.68655 18.1874 9.64995 18.1699 9.61101 18.1599Z" fill="#363853"/>
<path d="M18.9931 5.728C19.1082 5.84242 19.2641 5.90658 19.4266 5.90635C19.5891 5.90612 19.7449 5.84152 19.8596 5.72677C19.9744 5.61202 20.0387 5.45652 20.0385 5.29446C20.0382 5.13241 19.9735 4.97709 19.8584 4.86266L18.2672 3.27989C18.2103 3.22317 18.1427 3.1782 18.0683 3.14756C17.9939 3.11692 17.9142 3.10121 17.8337 3.10132C17.7532 3.10143 17.6736 3.11737 17.5993 3.14822C17.525 3.17907 17.4575 3.22423 17.4007 3.28111C17.2861 3.39591 17.2218 3.5514 17.222 3.71342C17.2223 3.87544 17.287 4.03074 17.402 4.14522L18.9931 5.728V5.728Z" fill="#363853"/>
<path d="M11.662 11.6613V6.77578C11.662 6.61371 11.5975 6.45827 11.4826 6.34366C11.3676 6.22906 11.2118 6.16467 11.0492 6.16467C10.8867 6.16467 10.7308 6.22906 10.6159 6.34366C10.501 6.45827 10.4364 6.61371 10.4364 6.77578V11.9253C10.4364 12.0937 10.5244 12.2541 10.6469 12.3693L12.4403 14.0407C12.5589 14.1519 12.7099 14.2075 12.861 14.2075C12.9431 14.2076 13.0243 14.1906 13.0994 14.1576C13.1744 14.1245 13.2418 14.0762 13.297 14.0156C13.5302 13.77 13.5093 13.3834 13.2633 13.1518L11.662 11.6613V11.6613Z" fill="#363853"/>
</g>
</svg>
