<svg width="116" height="39" viewBox="0 0 116 39" fill="none" xmlns="http://www.w3.org/2000/svg">
<path d="M1.366 31C1.146 31 0.959 30.923 0.805 30.769C0.651 30.615 0.574 30.428 0.574 30.208V8.725C0.574 8.483 0.64 8.285 0.772 8.131C0.926 7.977 1.124 7.9 1.366 7.9H15.886C16.128 7.9 16.326 7.977 16.48 8.131C16.634 8.285 16.711 8.483 16.711 8.725V10.903C16.711 11.145 16.634 11.343 16.48 11.497C16.326 11.629 16.128 11.695 15.886 11.695H5.029V17.536H15.16C15.402 17.536 15.6 17.613 15.754 17.767C15.908 17.899 15.985 18.086 15.985 18.328V20.374C15.985 20.616 15.908 20.814 15.754 20.968C15.6 21.1 15.402 21.166 15.16 21.166H5.029V27.205H16.15C16.392 27.205 16.59 27.282 16.744 27.436C16.898 27.59 16.975 27.788 16.975 28.03V30.208C16.975 30.45 16.898 30.648 16.744 30.802C16.59 30.934 16.392 31 16.15 31H1.366Z" fill="#FF7A50"/>
<path d="M23.5443 31C23.3243 31 23.1373 30.923 22.9833 30.769C22.8293 30.615 22.7523 30.428 22.7523 30.208V8.725C22.7523 8.483 22.8183 8.285 22.9503 8.131C23.1043 7.977 23.3023 7.9 23.5443 7.9H37.8663C38.1083 7.9 38.3063 7.977 38.4603 8.131C38.6143 8.285 38.6913 8.483 38.6913 8.725V11.035C38.6913 11.277 38.6143 11.475 38.4603 11.629C38.3063 11.761 38.1083 11.827 37.8663 11.827H27.2733V18.097H37.2063C37.4483 18.097 37.6463 18.174 37.8003 18.328C37.9543 18.482 38.0313 18.68 38.0313 18.922V21.232C38.0313 21.474 37.9543 21.672 37.8003 21.826C37.6463 21.958 37.4483 22.024 37.2063 22.024H27.2733V30.208C27.2733 30.45 27.1963 30.648 27.0423 30.802C26.8883 30.934 26.6903 31 26.4483 31H23.5443ZM51.0934 31.33C48.5194 31.33 46.5284 30.67 45.1204 29.35C43.7124 28.008 42.9534 26.182 42.8434 23.872L42.8104 22.42L42.8434 20.968C42.9534 18.68 43.7234 16.865 45.1534 15.523C46.5834 14.181 48.5634 13.51 51.0934 13.51C53.6234 13.51 55.6034 14.181 57.0334 15.523C58.4634 16.865 59.2334 18.68 59.3434 20.968C59.3654 21.232 59.3764 21.716 59.3764 22.42C59.3764 23.124 59.3654 23.608 59.3434 23.872C59.2334 26.182 58.4744 28.008 57.0664 29.35C55.6584 30.67 53.6674 31.33 51.0934 31.33ZM51.0934 28.063C52.2594 28.063 53.1614 27.7 53.7994 26.974C54.4374 26.226 54.7894 25.137 54.8554 23.707C54.8774 23.487 54.8884 23.058 54.8884 22.42C54.8884 21.782 54.8774 21.353 54.8554 21.133C54.7894 19.703 54.4374 18.625 53.7994 17.899C53.1614 17.151 52.2594 16.777 51.0934 16.777C49.9274 16.777 49.0254 17.151 48.3874 17.899C47.7494 18.625 47.3974 19.703 47.3314 21.133L47.2984 22.42L47.3314 23.707C47.3974 25.137 47.7494 26.226 48.3874 26.974C49.0254 27.7 49.9274 28.063 51.0934 28.063ZM72.2727 31.33C69.6987 31.33 67.7077 30.67 66.2997 29.35C64.8917 28.008 64.1327 26.182 64.0227 23.872L63.9897 22.42L64.0227 20.968C64.1327 18.68 64.9027 16.865 66.3327 15.523C67.7627 14.181 69.7427 13.51 72.2727 13.51C74.8027 13.51 76.7827 14.181 78.2127 15.523C79.6427 16.865 80.4127 18.68 80.5227 20.968C80.5447 21.232 80.5557 21.716 80.5557 22.42C80.5557 23.124 80.5447 23.608 80.5227 23.872C80.4127 26.182 79.6537 28.008 78.2457 29.35C76.8377 30.67 74.8467 31.33 72.2727 31.33ZM72.2727 28.063C73.4387 28.063 74.3407 27.7 74.9787 26.974C75.6167 26.226 75.9687 25.137 76.0347 23.707C76.0567 23.487 76.0677 23.058 76.0677 22.42C76.0677 21.782 76.0567 21.353 76.0347 21.133C75.9687 19.703 75.6167 18.625 74.9787 17.899C74.3407 17.151 73.4387 16.777 72.2727 16.777C71.1067 16.777 70.2047 17.151 69.5667 17.899C68.9287 18.625 68.5767 19.703 68.5107 21.133L68.4777 22.42L68.5107 23.707C68.5767 25.137 68.9287 26.226 69.5667 26.974C70.2047 27.7 71.1067 28.063 72.2727 28.063ZM92.231 31.33C90.009 31.33 88.304 30.615 87.116 29.185C85.928 27.755 85.29 25.852 85.202 23.476L85.169 22.387L85.202 21.331C85.268 19.021 85.895 17.14 87.083 15.688C88.293 14.236 90.009 13.51 92.231 13.51C94.365 13.51 96.059 14.236 97.313 15.688V8.362C97.313 8.12 97.39 7.933 97.544 7.801C97.698 7.647 97.885 7.57 98.105 7.57H100.91C101.152 7.57 101.339 7.647 101.471 7.801C101.625 7.933 101.702 8.12 101.702 8.362V30.208C101.702 30.428 101.625 30.615 101.471 30.769C101.339 30.923 101.152 31 100.91 31H98.303C98.083 31 97.896 30.923 97.742 30.769C97.588 30.615 97.511 30.428 97.511 30.208V28.987C96.257 30.549 94.497 31.33 92.231 31.33ZM93.452 27.799C94.728 27.799 95.674 27.392 96.29 26.578C96.906 25.764 97.247 24.763 97.313 23.575C97.335 23.311 97.346 22.882 97.346 22.288C97.346 21.716 97.335 21.298 97.313 21.034C97.269 19.934 96.917 18.999 96.257 18.229C95.619 17.437 94.684 17.041 93.452 17.041C91.076 17.041 89.811 18.504 89.657 21.43L89.624 22.42L89.657 23.41C89.811 26.336 91.076 27.799 93.452 27.799Z" fill="#37383D"/>
</svg>
