<svg width="17" height="16" viewBox="0 0 17 16" fill="none" xmlns="http://www.w3.org/2000/svg">
<path d="M10.525 14.3001C10.28 14.3001 10.0538 14.1616 9.94326 13.9406L8.01406 10.0822C7.90811 9.87034 7.92631 9.61684 8.06086 9.42119L11.175 5.20009L6.95326 8.31359C6.75761 8.44879 6.50411 8.46569 6.29221 8.36039L2.43446 6.43184C2.20306 6.31549 2.06201 6.07304 2.07631 5.81434C2.08996 5.55564 2.25701 5.32944 2.50011 5.24039L14.8501 0.690388C15.0874 0.603938 15.3545 0.660488 15.5346 0.840538C15.714 1.01929 15.7725 1.28709 15.6847 1.52499L11.1347 13.875C11.045 14.1181 10.8195 14.2851 10.5608 14.2988C10.5491 14.2994 10.5367 14.3001 10.525 14.3001Z" fill="white"/>
</svg>
